<?xml version="1.0" ?><!DOCTYPE svg  PUBLIC '-//W3C//DTD SVG 1.1//EN'  'http://www.w3.org/Graphics/SVG/1.1/DTD/svg11.dtd'><svg id="Layer_1" style="enable-background:new 0 0 75 75;" version="1.1" viewBox="0 0 75 75" xml:space="preserve" xmlns="http://www.w3.org/2000/svg" xmlns:xlink="http://www.w3.org/1999/xlink"><style type="text/css">
	.st0{fill:#EC008C;}
	.st1{fill:#FFFFFF;}
	.st2{fill:#00AAAD;}
	.st3{fill:#F9A01B;}
	.st4{fill:#B2D235;}
</style><g><g><g><g><path class="st3" d="M62.5,73.5h-50c-6.1,0-11-4.9-11-11v-50c0-6.1,4.9-11,11-11h50c6.1,0,11,4.9,11,11v50      C73.5,68.6,68.6,73.5,62.5,73.5z"/></g></g></g><g><path class="st1" d="M37.5,20C31.7,20,27,24.7,27,30.5C27,36.3,37.5,55,37.5,55S48,36.3,48,30.5C48,24.7,43.3,20,37.5,20z     M37.5,37.6c-4,0-7.2-3.2-7.2-7.2s3.2-7.2,7.2-7.2s7.2,3.2,7.2,7.2S41.5,37.6,37.5,37.6z"/></g></g></svg>